<?xml version="1.0" encoding="utf-8"?>
<!DOCTYPE svg PUBLIC "-//W3C//DTD SVG 1.1//EN" "http://www.w3.org/Graphics/SVG/1.1/DTD/svg11.dtd">
<svg version="1.1" xmlns="http://www.w3.org/2000/svg" xmlns:xlink="http://www.w3.org/1999/xlink" x="0px" y="0px" width="50px"
	 height="50px" viewBox="0 0 50 50" enable-background="new 0 0 50 50" xml:space="preserve">
<style>
  <!-- By default set the fill color to either white at 90% opacity for 'light'
       versions and black at 90% for dark versions -->
  .light path {
    fill: #fff;
    opacity: 0.9;
  }

  .dark path {
    fill: #000;
    opacity: 0.7;
  }


  <!-- Set the class of #circular-progress to "p0" through "p8" corresponding
       to how many segments to show.
       Here the rest of the segments are set to display at 15% opacity -->

  .p0 #seg1, .p0 #seg2, .p0 #seg3, .p0 #seg4, .p0 #seg5, .p0 #seg6, .p0 #seg7, .p0 #seg8,
  .p1 #seg2, .p1 #seg3, .p1 #seg4, .p1 #seg5, .p1 #seg6, .p1 #seg7, .p1 #seg8,
  .p2 #seg3, .p2 #seg4, .p2 #seg5, .p2 #seg6, .p2 #seg7, .p2 #seg8,
  .p3 #seg4, .p3 #seg5, .p3 #seg6, .p3 #seg7, .p3 #seg8,
  .p4 #seg5, .p4 #seg6, .p4 #seg7, .p4 #seg8,
  .p5 #seg6, .p5 #seg7, .p5 #seg8,
  .p6 #seg7, .p6 #seg8,
  .p7 #seg8 {
    opacity:0.15;
  }
</style>

<g id="circular-progress" class='p0'>
  <path id='seg1' d="M26,0.025v13.089c2.544,0.211,4.859,1.216,6.7,2.771l9.254-9.253C37.726,2.728,32.148,0.268,26,0.025z"/>
  <path id='seg2' d="M43.368,8.046L34.114,17.3c1.557,1.84,2.562,4.156,2.772,6.7h13.088 C49.732,17.851,47.271,12.274,43.368,8.046z"/>
  <path id='seg3' d="M36.887,26c-0.211,2.544-1.216,4.86-2.772,6.701l9.253,9.253c3.904-4.228,6.365-9.805,6.607-15.953 L36.887,26z"/>
  <path id='seg4' d="M32.7,34.114c-1.84,1.557-4.156,2.562-6.7,2.772v13.088c6.148-0.242,11.726-2.703,15.953-6.607 L32.7,34.114z"/>
  <path id='seg5' d="M24,49.975V36.887c-2.544-0.211-4.86-1.216-6.7-2.772l-9.254,9.254C12.274,47.272,17.852,49.732,24,49.975z"/>
  <path id='seg6' d="M6.632,41.954l9.254-9.254c-1.556-1.841-2.561-4.156-2.772-6.701l-13.088,0 C0.267,32.148,2.728,37.726,6.632,41.954z"/>
  <path id='seg7' d="M13.114,24c0.211-2.544,1.216-4.86,2.772-6.7L6.633,8.045C2.729,12.273,0.268,17.851,0.025,24H13.114z"/>
  <path id='seg8' d="M17.3,15.886c1.84-1.556,4.156-2.561,6.7-2.772V0.025C17.852,0.268,12.274,2.728,8.046,6.632L17.3,15.886z"/>
</g>
</svg>
