<?xml version="1.0" encoding="UTF-8" standalone="no"?>
<svg width="52px" height="12px" viewBox="0 0 52 12" version="1.1" xmlns="http://www.w3.org/2000/svg" xmlns:xlink="http://www.w3.org/1999/xlink" xmlns:sketch="http://www.bohemiancoding.com/sketch/ns">
    <!-- Generator: Sketch 3.1.1 (8761) - http://www.bohemiancoding.com/sketch -->
    <title>line-dotted</title>
    <desc>Created with Sketch.</desc>
    <defs></defs>
    <g id="Page-1" stroke="none" stroke-width="1" fill="none" fill-rule="evenodd" sketch:type="MSPage">
        <g id="line-dotted" sketch:type="MSArtboardGroup" fill="#000000">
            <path d="M1,5 L1,7 L3,7 L3,5 L1,5 Z M9,5 L9,7 L11,7 L11,5 L9,5 Z M17,5 L17,7 L19,7 L19,5 L17,5 Z M25,5 L25,7 L27,7 L27,5 L25,5 Z M33,5 L33,7 L35,7 L35,5 L33,5 Z M41,5 L41,7 L43,7 L43,5 L41,5 Z M49,5 L49,7 L51,7 L51,5 L49,5 Z" sketch:type="MSShapeGroup"></path>
        </g>
    </g>
</svg>